<svg xmlns="http://www.w3.org/2000/svg" width="800" height="800" viewBox="0 0 800 800" fill="none">
  <rect width="800" height="800" rx="40" fill="#FFE4E6"/>
  <rect x="250" y="120" width="300" height="560" rx="36" fill="#111827"/>
  <rect x="272" y="165" width="256" height="455" rx="20" fill="#F9FAFB"/>
  <rect x="350" y="140" width="100" height="8" rx="4" fill="#374151"/>
  <circle cx="400" cy="650" r="20" fill="#374151"/>
  <path d="M312 355C312 307.386 350.386 269 398 269H402C449.614 269 488 307.386 488 355V445C488 492.614 449.614 531 402 531H398C350.386 531 312 492.614 312 445V355Z" fill="#FDBA74"/>
  <circle cx="400" cy="400" r="64" fill="#FD3D57"/>
  <path d="M390 370H410V390H430V410H410V430H390V410H370V390H390V370Z" fill="white"/>
</svg>
